<svg xmlns="http://www.w3.org/2000/svg" xmlns:xlink="http://www.w3.org/1999/xlink" width="600" zoomAndPan="magnify" viewBox="0 0 450 129.000003" height="172" preserveAspectRatio="xMidYMid meet" version="1.0"><defs><g/></defs><g fill="#000000" fill-opacity="1"><g transform="translate(92.524591, 88.935582)"><g><path d="M 17.5625 -54.703125 L 13.546875 -24.640625 L 13.25 -22.328125 L 12.796875 -22.328125 L 12.5 -24.640625 L 8.484375 -54.703125 L 0.671875 -54.703125 L 9 0 L 17.046875 0 L 25.375 -54.703125 Z M 17.5625 -54.703125 "/></g></g></g><g fill="#000000" fill-opacity="1"><g transform="translate(118.572645, 88.935582)"><g><path d="M 0.75 0 L 8.5625 0 L 10.046875 -11.15625 L 17.78125 -11.15625 L 19.28125 0 L 27.09375 0 L 18.828125 -54.703125 L 9 -54.703125 Z M 14.359375 -36.90625 L 16.671875 -19.640625 L 11.15625 -19.640625 L 13.46875 -36.90625 L 13.6875 -38.328125 L 14.140625 -38.328125 Z M 14.359375 -36.90625 "/></g></g></g><g fill="#000000" fill-opacity="1"><g transform="translate(146.406848, 88.935582)"><g><path d="M 2.984375 -54.703125 L 2.984375 0 L 21.65625 0 L 21.65625 -7.4375 L 11.015625 -7.4375 L 11.015625 -54.703125 Z M 2.984375 -54.703125 "/></g></g></g><g fill="#000000" fill-opacity="1"><g transform="translate(168.361632, 88.935582)"><g><path d="M 2.984375 -54.703125 L 2.984375 0 L 21.359375 0 L 21.359375 -8.265625 L 11.015625 -8.265625 L 11.015625 -23.296875 L 18.453125 -23.296875 L 18.453125 -32.078125 L 11.015625 -32.078125 L 11.015625 -46.4375 L 21.359375 -46.4375 L 21.359375 -54.703125 Z M 2.984375 -54.703125 "/></g></g></g><g fill="#000000" fill-opacity="1"><g transform="translate(191.209491, 88.935582)"><g><path d="M 0.15625 -46.4375 L 7.734375 -46.4375 L 7.734375 0 L 15.78125 0 L 15.78125 -46.4375 L 23.375 -46.4375 L 23.375 -54.703125 L 0.15625 -54.703125 Z M 0.15625 -46.4375 "/></g></g></g><g fill="#000000" fill-opacity="1"><g transform="translate(214.727165, 88.935582)"><g/></g></g><g fill="#000000" fill-opacity="1"><g transform="translate(226.188302, 88.935582)"><g><path d="M 0.15625 -46.4375 L 7.734375 -46.4375 L 7.734375 0 L 15.78125 0 L 15.78125 -46.4375 L 23.375 -46.4375 L 23.375 -54.703125 L 0.15625 -54.703125 Z M 0.15625 -46.4375 "/></g></g></g><g fill="#000000" fill-opacity="1"><g transform="translate(249.705976, 88.935582)"><g><path d="M 17.34375 0 L 25.375 0 L 20.25 -26.5 C 21.78125 -27.539062 22.90625 -29.1875 23.625 -31.4375 C 24.34375 -33.695312 24.703125 -36.191406 24.703125 -38.921875 C 24.703125 -44.078125 23.625 -47.992188 21.46875 -50.671875 C 19.3125 -53.359375 15.828125 -54.703125 11.015625 -54.703125 L 2.984375 -54.703125 L 2.984375 0 L 11.015625 0 L 11.015625 -23.078125 L 13.171875 -23.078125 Z M 11.015625 -30.515625 L 11.015625 -46.734375 C 11.554688 -46.734375 12.175781 -46.679688 12.875 -46.578125 C 13.570312 -46.484375 14.21875 -46.164062 14.8125 -45.625 C 15.40625 -45.125 15.910156 -44.316406 16.328125 -43.203125 C 16.753906 -42.085938 16.96875 -40.5625 16.96875 -38.625 C 16.96875 -36.6875 16.753906 -35.179688 16.328125 -34.109375 C 15.910156 -33.046875 15.40625 -32.242188 14.8125 -31.703125 C 14.21875 -31.203125 13.570312 -30.878906 12.875 -30.734375 C 12.175781 -30.585938 11.554688 -30.515625 11.015625 -30.515625 Z M 11.015625 -30.515625 "/></g></g></g><g fill="#000000" fill-opacity="1"><g transform="translate(276.572677, 88.935582)"><g><path d="M 0.75 0 L 8.5625 0 L 10.046875 -11.15625 L 17.78125 -11.15625 L 19.28125 0 L 27.09375 0 L 18.828125 -54.703125 L 9 -54.703125 Z M 14.359375 -36.90625 L 16.671875 -19.640625 L 11.15625 -19.640625 L 13.46875 -36.90625 L 13.6875 -38.328125 L 14.140625 -38.328125 Z M 14.359375 -36.90625 "/></g></g></g><g fill="#000000" fill-opacity="1"><g transform="translate(303.662638, 88.935582)"><g><path d="M 16.296875 -40.03125 L 24.1875 -40.78125 C 24.1875 -42.320312 24.050781 -43.945312 23.78125 -45.65625 C 23.507812 -47.363281 22.972656 -48.960938 22.171875 -50.453125 C 21.378906 -51.890625 20.25 -53.066406 18.78125 -53.984375 C 17.320312 -54.910156 15.378906 -55.347656 12.953125 -55.296875 C 11.066406 -55.242188 9.453125 -54.832031 8.109375 -54.0625 C 6.773438 -53.289062 5.6875 -52.3125 4.84375 -51.125 C 4 -49.882812 3.390625 -48.507812 3.015625 -47 C 2.640625 -45.488281 2.453125 -43.988281 2.453125 -42.5 C 2.453125 -41.007812 2.675781 -39.546875 3.125 -38.109375 C 3.914062 -35.273438 5.226562 -32.445312 7.0625 -29.625 C 7.957031 -28.226562 8.828125 -26.910156 9.671875 -25.671875 C 10.515625 -24.429688 11.332031 -23.242188 12.125 -22.109375 C 12.519531 -21.554688 12.878906 -21.003906 13.203125 -20.453125 C 13.523438 -19.910156 13.863281 -19.367188 14.21875 -18.828125 C 14.8125 -17.734375 15.304688 -16.675781 15.703125 -15.65625 C 16.097656 -14.644531 16.296875 -13.691406 16.296875 -12.796875 C 16.296875 -11.066406 16.046875 -9.628906 15.546875 -8.484375 C 15.054688 -7.335938 14.21875 -6.765625 13.03125 -6.765625 C 12.1875 -6.765625 11.515625 -7.035156 11.015625 -7.578125 C 10.515625 -8.128906 10.140625 -8.851562 9.890625 -9.75 C 9.597656 -10.59375 9.414062 -11.570312 9.34375 -12.6875 C 9.269531 -13.800781 9.234375 -14.929688 9.234375 -16.078125 L 1.34375 -15.328125 C 1.34375 -13.296875 1.476562 -11.320312 1.75 -9.40625 C 2.019531 -7.5 2.550781 -5.800781 3.34375 -4.3125 C 4.1875 -2.820312 5.363281 -1.628906 6.875 -0.734375 C 8.394531 0.148438 10.445312 0.59375 13.03125 0.59375 C 15.207031 0.59375 17.015625 0.207031 18.453125 -0.5625 C 19.890625 -1.332031 21.03125 -2.335938 21.875 -3.578125 C 22.71875 -4.859375 23.3125 -6.316406 23.65625 -7.953125 C 24.007812 -9.597656 24.1875 -11.335938 24.1875 -13.171875 C 24.1875 -14.660156 23.960938 -16.109375 23.515625 -17.515625 C 23.066406 -18.929688 22.5 -20.335938 21.8125 -21.734375 C 21.113281 -23.117188 20.316406 -24.503906 19.421875 -25.890625 C 18.523438 -27.285156 17.609375 -28.675781 16.671875 -30.0625 C 15.878906 -31.207031 15.109375 -32.320312 14.359375 -33.40625 C 13.617188 -34.5 12.953125 -35.566406 12.359375 -36.609375 C 11.765625 -37.648438 11.28125 -38.65625 10.90625 -39.625 C 10.53125 -40.59375 10.34375 -41.550781 10.34375 -42.5 C 10.34375 -44.082031 10.539062 -45.367188 10.9375 -46.359375 C 11.332031 -47.359375 12.050781 -47.878906 13.09375 -47.921875 C 13.738281 -47.921875 14.269531 -47.6875 14.6875 -47.21875 C 15.113281 -46.75 15.453125 -46.140625 15.703125 -45.390625 C 15.953125 -44.597656 16.113281 -43.726562 16.1875 -42.78125 C 16.257812 -41.84375 16.296875 -40.925781 16.296875 -40.03125 Z M 16.296875 -40.03125 "/></g></g></g><g fill="#000000" fill-opacity="1"><g transform="translate(329.189744, 88.935582)"><g><path d="M 17.265625 -23.8125 L 17.265625 0 L 25.296875 0 L 25.296875 -54.703125 L 17.265625 -54.703125 L 17.265625 -32.078125 L 11.015625 -32.078125 L 11.015625 -54.703125 L 2.984375 -54.703125 L 2.984375 0 L 11.015625 0 L 11.015625 -23.8125 Z M 17.265625 -23.8125 "/></g></g></g><g fill="#000000" fill-opacity="1"><g transform="translate(357.470744, 88.935582)"><g/></g></g><g fill="#000000" fill-opacity="1"><g transform="translate(86.82798, 121.532882)"><g><path d="M 10.9375 -10.421875 L 10.28125 -10.421875 C 10.332031 -11.503906 10.132812 -12.242188 9.6875 -12.640625 C 9.238281 -13.035156 8.585938 -13.222656 7.734375 -13.203125 L 6.03125 -13.15625 C 5.550781 -13.144531 5.203125 -13.054688 4.984375 -12.890625 C 4.765625 -12.734375 4.625 -12.503906 4.5625 -12.203125 C 4.5 -11.910156 4.445312 -11.441406 4.40625 -10.796875 L 4.234375 -7.625 L 5.65625 -7.59375 C 6.28125 -7.582031 6.753906 -7.613281 7.078125 -7.6875 C 7.410156 -7.769531 7.660156 -7.941406 7.828125 -8.203125 C 8.003906 -8.472656 8.109375 -8.894531 8.140625 -9.46875 L 8.796875 -9.46875 L 8.578125 -5.140625 L 7.921875 -5.140625 C 7.929688 -5.640625 7.882812 -6.015625 7.78125 -6.265625 C 7.6875 -6.515625 7.519531 -6.679688 7.28125 -6.765625 C 7.039062 -6.859375 6.703125 -6.90625 6.265625 -6.90625 L 5.640625 -6.890625 L 4.1875 -6.828125 L 3.953125 -2.28125 C 3.910156 -1.539062 3.863281 -1.023438 3.8125 -0.734375 L 7.59375 -0.796875 C 8.519531 -0.804688 9.238281 -1.039062 9.75 -1.5 C 10.269531 -1.957031 10.554688 -2.75 10.609375 -3.875 L 11.296875 -3.875 L 10.96875 0 L 0.8125 0 L 0.859375 -0.65625 C 1.316406 -0.664062 1.644531 -0.769531 1.84375 -0.96875 C 2.050781 -1.164062 2.175781 -1.40625 2.21875 -1.6875 C 2.269531 -1.96875 2.3125 -2.4375 2.34375 -3.09375 L 2.8125 -11.671875 C 2.832031 -12.117188 2.878906 -12.59375 2.953125 -13.09375 L 1.515625 -13.015625 L 1.546875 -13.890625 L 11.015625 -13.890625 Z M 10.9375 -10.421875 "/></g></g></g><g fill="#000000" fill-opacity="1"><g transform="translate(99.107901, 121.532882)"><g><path d="M 6.53125 -10.140625 C 7.425781 -10.140625 8.3125 -10.023438 9.1875 -9.796875 C 8.601562 -5.484375 8.3125 -2.835938 8.3125 -1.859375 C 8.3125 -1.515625 8.34375 -1.25 8.40625 -1.0625 C 8.476562 -0.875 8.632812 -0.78125 8.875 -0.78125 C 9.125 -0.78125 9.378906 -0.9375 9.640625 -1.25 C 9.910156 -1.5625 10.132812 -2.046875 10.3125 -2.703125 L 10.875 -2.578125 C 10.8125 -2.210938 10.671875 -1.8125 10.453125 -1.375 C 10.234375 -0.9375 9.941406 -0.5625 9.578125 -0.25 C 9.210938 0.0625 8.785156 0.21875 8.296875 0.21875 C 7.316406 0.21875 6.828125 -0.375 6.828125 -1.5625 C 6.828125 -2.144531 6.945312 -3.035156 7.1875 -4.234375 L 7.125 -4.234375 C 6.570312 -2.484375 5.960938 -1.300781 5.296875 -0.6875 C 4.640625 -0.0820312 3.957031 0.21875 3.25 0.21875 C 2.488281 0.21875 1.878906 -0.0546875 1.421875 -0.609375 C 0.960938 -1.171875 0.734375 -2.046875 0.734375 -3.234375 C 0.734375 -4.503906 0.953125 -5.660156 1.390625 -6.703125 C 1.828125 -7.753906 2.476562 -8.585938 3.34375 -9.203125 C 4.21875 -9.828125 5.28125 -10.140625 6.53125 -10.140625 Z M 5.90625 -9.421875 C 5.144531 -9.421875 4.5 -9.144531 3.96875 -8.59375 C 3.4375 -8.050781 3.039062 -7.332031 2.78125 -6.4375 C 2.53125 -5.539062 2.40625 -4.585938 2.40625 -3.578125 C 2.40625 -1.628906 2.832031 -0.65625 3.6875 -0.65625 C 4.269531 -0.65625 4.851562 -1.109375 5.4375 -2.015625 C 6.019531 -2.929688 6.503906 -4.0625 6.890625 -5.40625 C 7.273438 -6.75 7.46875 -8.007812 7.46875 -9.1875 C 7.0625 -9.34375 6.539062 -9.421875 5.90625 -9.421875 Z M 5.90625 -9.421875 "/></g></g></g><g fill="#000000" fill-opacity="1"><g transform="translate(109.979307, 121.532882)"><g><path d="M 4.5 -10.140625 C 5.28125 -10.140625 5.960938 -9.957031 6.546875 -9.59375 C 7.140625 -9.226562 7.4375 -8.765625 7.4375 -8.203125 C 7.4375 -7.921875 7.359375 -7.695312 7.203125 -7.53125 C 7.046875 -7.363281 6.847656 -7.28125 6.609375 -7.28125 C 6.378906 -7.28125 6.1875 -7.359375 6.03125 -7.515625 C 5.882812 -7.679688 5.8125 -7.867188 5.8125 -8.078125 C 5.8125 -8.296875 5.875 -8.5 6 -8.6875 C 5.914062 -8.925781 5.738281 -9.117188 5.46875 -9.265625 C 5.207031 -9.410156 4.863281 -9.484375 4.4375 -9.484375 C 3.976562 -9.484375 3.5625 -9.332031 3.1875 -9.03125 C 2.8125 -8.738281 2.625 -8.367188 2.625 -7.921875 C 2.625 -7.535156 2.796875 -7.1875 3.140625 -6.875 C 3.484375 -6.570312 4.007812 -6.21875 4.71875 -5.8125 C 5.3125 -5.46875 5.796875 -5.160156 6.171875 -4.890625 C 6.546875 -4.617188 6.859375 -4.296875 7.109375 -3.921875 C 7.367188 -3.554688 7.5 -3.140625 7.5 -2.671875 C 7.5 -2.117188 7.34375 -1.625 7.03125 -1.1875 C 6.71875 -0.75 6.273438 -0.40625 5.703125 -0.15625 C 5.140625 0.09375 4.492188 0.21875 3.765625 0.21875 C 2.910156 0.21875 2.164062 0.0234375 1.53125 -0.359375 C 0.90625 -0.742188 0.59375 -1.257812 0.59375 -1.90625 C 0.59375 -2.1875 0.675781 -2.414062 0.84375 -2.59375 C 1.007812 -2.78125 1.210938 -2.875 1.453125 -2.875 C 1.703125 -2.875 1.898438 -2.789062 2.046875 -2.625 C 2.191406 -2.457031 2.265625 -2.265625 2.265625 -2.046875 C 2.265625 -1.816406 2.203125 -1.609375 2.078125 -1.421875 C 2.171875 -1.148438 2.375 -0.929688 2.6875 -0.765625 C 3.007812 -0.597656 3.359375 -0.515625 3.734375 -0.515625 C 4.429688 -0.515625 4.960938 -0.675781 5.328125 -1 C 5.691406 -1.320312 5.875 -1.789062 5.875 -2.40625 C 5.875 -2.84375 5.6875 -3.222656 5.3125 -3.546875 C 4.945312 -3.878906 4.382812 -4.265625 3.625 -4.703125 C 2.78125 -5.191406 2.144531 -5.632812 1.71875 -6.03125 C 1.289062 -6.425781 1.078125 -6.90625 1.078125 -7.46875 C 1.078125 -7.9375 1.21875 -8.375 1.5 -8.78125 C 1.789062 -9.195312 2.195312 -9.523438 2.71875 -9.765625 C 3.25 -10.015625 3.84375 -10.140625 4.5 -10.140625 Z M 4.5 -10.140625 "/></g></g></g><g fill="#000000" fill-opacity="1"><g transform="translate(118.470108, 121.532882)"><g><path d="M 7.65625 -10.140625 C 8.21875 -10.140625 8.625 -9.894531 8.875 -9.40625 C 9.125 -8.914062 9.25 -8.3125 9.25 -7.59375 C 9.25 -6.394531 9.007812 -5.132812 8.53125 -3.8125 C 8.050781 -2.5 7.410156 -1.113281 6.609375 0.34375 C 5.648438 2.082031 4.738281 3.351562 3.875 4.15625 C 3.019531 4.96875 2.1875 5.375 1.375 5.375 C 0.894531 5.375 0.503906 5.253906 0.203125 5.015625 C -0.0859375 4.773438 -0.234375 4.476562 -0.234375 4.125 C -0.234375 3.84375 -0.148438 3.617188 0.015625 3.453125 C 0.191406 3.296875 0.378906 3.21875 0.578125 3.21875 C 0.859375 3.21875 1.070312 3.304688 1.21875 3.484375 C 1.375 3.660156 1.441406 3.914062 1.421875 4.25 C 1.609375 4.34375 1.753906 4.390625 1.859375 4.390625 C 2.367188 4.410156 2.910156 4.085938 3.484375 3.421875 C 4.054688 2.765625 4.53125 2.117188 4.90625 1.484375 C 4.664062 -0.140625 4.332031 -1.773438 3.90625 -3.421875 C 3.488281 -5.078125 3.015625 -6.550781 2.484375 -7.84375 C 2.328125 -8.1875 2.1875 -8.4375 2.0625 -8.59375 C 1.945312 -8.757812 1.78125 -8.84375 1.5625 -8.84375 C 1.34375 -8.84375 1.160156 -8.703125 1.015625 -8.421875 C 0.878906 -8.148438 0.8125 -7.773438 0.8125 -7.296875 C 0.8125 -7.078125 0.816406 -6.90625 0.828125 -6.78125 L 0.203125 -6.703125 C 0.179688 -6.835938 0.171875 -7.035156 0.171875 -7.296875 C 0.171875 -8.078125 0.3125 -8.742188 0.59375 -9.296875 C 0.882812 -9.859375 1.351562 -10.140625 2 -10.140625 C 2.59375 -10.140625 3.054688 -9.929688 3.390625 -9.515625 C 3.722656 -9.097656 4.007812 -8.554688 4.25 -7.890625 C 4.507812 -7.179688 4.742188 -6.410156 4.953125 -5.578125 C 5.171875 -4.753906 5.425781 -3.695312 5.71875 -2.40625 C 5.789062 -2.019531 5.890625 -1.34375 6.015625 -0.375 L 6.046875 -0.375 C 6.679688 -1.488281 7.21875 -2.65625 7.65625 -3.875 C 8.09375 -5.101562 8.3125 -6.210938 8.3125 -7.203125 C 8.3125 -7.515625 8.28125 -7.796875 8.21875 -8.046875 C 8.164062 -8.304688 8.097656 -8.492188 8.015625 -8.609375 C 7.898438 -8.535156 7.734375 -8.5 7.515625 -8.5 C 7.273438 -8.5 7.082031 -8.570312 6.9375 -8.71875 C 6.800781 -8.875 6.734375 -9.054688 6.734375 -9.265625 C 6.734375 -9.546875 6.820312 -9.757812 7 -9.90625 C 7.1875 -10.0625 7.40625 -10.140625 7.65625 -10.140625 Z M 7.65625 -10.140625 "/></g></g></g><g fill="#000000" fill-opacity="1"><g transform="translate(128.66701, 121.532882)"><g/></g></g><g fill="#000000" fill-opacity="1"><g transform="translate(133.884495, 121.532882)"><g><path d="M 6.09375 -14.203125 C 6.78125 -14.203125 7.378906 -14.097656 7.890625 -13.890625 C 8.410156 -13.691406 8.804688 -13.421875 9.078125 -13.078125 C 9.359375 -12.742188 9.5 -12.382812 9.5 -12 C 9.5 -11.738281 9.421875 -11.519531 9.265625 -11.34375 C 9.117188 -11.164062 8.914062 -11.078125 8.65625 -11.078125 C 8.4375 -11.078125 8.25 -11.140625 8.09375 -11.265625 C 7.9375 -11.398438 7.859375 -11.570312 7.859375 -11.78125 L 7.859375 -11.859375 C 7.859375 -12.066406 7.910156 -12.257812 8.015625 -12.4375 C 7.960938 -12.726562 7.757812 -12.976562 7.40625 -13.1875 C 7.0625 -13.40625 6.644531 -13.515625 6.15625 -13.515625 C 5.320312 -13.515625 4.660156 -13.226562 4.171875 -12.65625 C 3.691406 -12.09375 3.453125 -11.398438 3.453125 -10.578125 C 3.453125 -9.910156 3.632812 -9.304688 4 -8.765625 C 4.363281 -8.222656 5 -7.953125 5.90625 -7.953125 C 6.28125 -7.953125 6.546875 -7.960938 6.703125 -7.984375 L 6.671875 -7.109375 L 5.90625 -7.125 C 5.09375 -7.125 4.429688 -6.9375 3.921875 -6.5625 C 3.421875 -6.1875 3.066406 -5.742188 2.859375 -5.234375 C 2.660156 -4.734375 2.5625 -4.28125 2.5625 -3.875 C 2.5625 -3.164062 2.726562 -2.566406 3.0625 -2.078125 C 3.40625 -1.585938 3.832031 -1.21875 4.34375 -0.96875 C 4.863281 -0.726562 5.394531 -0.609375 5.9375 -0.609375 C 7.382812 -0.609375 8.46875 -1.003906 9.1875 -1.796875 C 9.90625 -2.597656 10.265625 -3.609375 10.265625 -4.828125 L 9.609375 -4.828125 C 9.210938 -4.828125 8.863281 -4.78125 8.5625 -4.6875 C 8.257812 -4.601562 7.925781 -4.414062 7.5625 -4.125 L 7.15625 -4.53125 C 7.582031 -5.164062 8.035156 -5.582031 8.515625 -5.78125 C 8.992188 -5.988281 9.675781 -6.09375 10.5625 -6.09375 C 11.207031 -6.09375 11.722656 -6.140625 12.109375 -6.234375 C 12.503906 -6.328125 12.894531 -6.554688 13.28125 -6.921875 L 13.71875 -6.59375 C 13.445312 -6.175781 13.21875 -5.863281 13.03125 -5.65625 C 12.851562 -5.457031 12.613281 -5.285156 12.3125 -5.140625 C 12.007812 -4.992188 11.609375 -4.898438 11.109375 -4.859375 C 11.117188 -4.054688 10.957031 -3.257812 10.625 -2.46875 C 10.289062 -1.6875 9.710938 -1.023438 8.890625 -0.484375 C 8.066406 0.046875 6.992188 0.3125 5.671875 0.3125 C 4.191406 0.3125 2.988281 -0.00390625 2.0625 -0.640625 C 1.132812 -1.285156 0.671875 -2.21875 0.671875 -3.4375 C 0.671875 -4.09375 0.8125 -4.722656 1.09375 -5.328125 C 1.382812 -5.929688 1.8125 -6.441406 2.375 -6.859375 C 2.945312 -7.273438 3.628906 -7.535156 4.421875 -7.640625 C 2.597656 -8.023438 1.6875 -8.929688 1.6875 -10.359375 C 1.6875 -11.140625 1.878906 -11.820312 2.265625 -12.40625 C 2.648438 -12.988281 3.175781 -13.429688 3.84375 -13.734375 C 4.507812 -14.046875 5.257812 -14.203125 6.09375 -14.203125 Z M 6.09375 -14.203125 "/></g></g></g><g fill="#000000" fill-opacity="1"><g transform="translate(147.434069, 121.532882)"><g/></g></g><g fill="#000000" fill-opacity="1"><g transform="translate(152.651554, 121.532882)"><g><path d="M 6.125 -13.90625 C 8.507812 -13.925781 10.382812 -13.390625 11.75 -12.296875 C 13.113281 -11.210938 13.796875 -9.601562 13.796875 -7.46875 C 13.796875 -6.125 13.492188 -4.882812 12.890625 -3.75 C 12.296875 -2.625 11.40625 -1.71875 10.21875 -1.03125 C 9.039062 -0.34375 7.613281 0 5.9375 0 L 0.796875 0 L 0.828125 -0.65625 C 1.296875 -0.664062 1.628906 -0.769531 1.828125 -0.96875 C 2.035156 -1.164062 2.160156 -1.40625 2.203125 -1.6875 C 2.253906 -1.96875 2.296875 -2.4375 2.328125 -3.09375 L 2.796875 -11.671875 C 2.847656 -12.328125 2.894531 -12.800781 2.9375 -13.09375 L 1.46875 -13.015625 L 1.53125 -13.890625 Z M 6.015625 -13.171875 C 5.523438 -13.171875 5.171875 -13.09375 4.953125 -12.9375 C 4.734375 -12.789062 4.585938 -12.570312 4.515625 -12.28125 C 4.453125 -12 4.410156 -11.550781 4.390625 -10.9375 L 3.921875 -2.34375 C 3.890625 -1.601562 3.847656 -1.085938 3.796875 -0.796875 C 4.367188 -0.765625 5.070312 -0.75 5.90625 -0.75 C 7.082031 -0.75 8.128906 -1.046875 9.046875 -1.640625 C 9.960938 -2.242188 10.675781 -3.0625 11.1875 -4.09375 C 11.695312 -5.125 11.953125 -6.273438 11.953125 -7.546875 C 11.953125 -9.304688 11.453125 -10.679688 10.453125 -11.671875 C 9.460938 -12.671875 7.984375 -13.171875 6.015625 -13.171875 Z M 6.015625 -13.171875 "/></g></g></g><g fill="#000000" fill-opacity="1"><g transform="translate(167.292241, 121.532882)"><g><path d="M 3.765625 -14.421875 C 4.078125 -14.421875 4.332031 -14.316406 4.53125 -14.109375 C 4.726562 -13.898438 4.828125 -13.628906 4.828125 -13.296875 C 4.828125 -12.960938 4.71875 -12.691406 4.5 -12.484375 C 4.289062 -12.285156 4.039062 -12.1875 3.75 -12.1875 C 3.457031 -12.1875 3.207031 -12.285156 3 -12.484375 C 2.800781 -12.691406 2.703125 -12.960938 2.703125 -13.296875 C 2.703125 -13.628906 2.804688 -13.898438 3.015625 -14.109375 C 3.222656 -14.316406 3.472656 -14.421875 3.765625 -14.421875 Z M 2.640625 -10.140625 C 3.179688 -10.140625 3.59375 -9.953125 3.875 -9.578125 C 4.164062 -9.210938 4.3125 -8.710938 4.3125 -8.078125 C 4.3125 -7.554688 4.195312 -6.648438 3.96875 -5.359375 C 3.832031 -4.523438 3.726562 -3.828125 3.65625 -3.265625 C 3.582031 -2.703125 3.546875 -2.148438 3.546875 -1.609375 C 3.546875 -1.054688 3.753906 -0.78125 4.171875 -0.78125 C 4.421875 -0.78125 4.675781 -0.9375 4.9375 -1.25 C 5.207031 -1.5625 5.429688 -2.046875 5.609375 -2.703125 L 6.171875 -2.578125 C 6.015625 -1.867188 5.726562 -1.222656 5.3125 -0.640625 C 4.90625 -0.0664062 4.367188 0.21875 3.703125 0.21875 C 2.515625 0.21875 1.921875 -0.398438 1.921875 -1.640625 C 1.921875 -2.160156 1.953125 -2.664062 2.015625 -3.15625 C 2.085938 -3.644531 2.191406 -4.253906 2.328125 -4.984375 C 2.453125 -5.785156 2.546875 -6.40625 2.609375 -6.84375 C 2.671875 -7.289062 2.703125 -7.757812 2.703125 -8.25 C 2.703125 -8.476562 2.65625 -8.679688 2.5625 -8.859375 C 2.476562 -9.046875 2.335938 -9.140625 2.140625 -9.140625 C 1.890625 -9.140625 1.628906 -8.984375 1.359375 -8.671875 C 1.097656 -8.359375 0.875 -7.875 0.6875 -7.21875 L 0.140625 -7.34375 C 0.253906 -7.988281 0.523438 -8.613281 0.953125 -9.21875 C 1.378906 -9.832031 1.941406 -10.140625 2.640625 -10.140625 Z M 2.640625 -10.140625 "/></g></g></g><g fill="#000000" fill-opacity="1"><g transform="translate(173.719861, 121.532882)"><g><path d="M 4.5 -10.140625 C 5.28125 -10.140625 5.960938 -9.957031 6.546875 -9.59375 C 7.140625 -9.226562 7.4375 -8.765625 7.4375 -8.203125 C 7.4375 -7.921875 7.359375 -7.695312 7.203125 -7.53125 C 7.046875 -7.363281 6.847656 -7.28125 6.609375 -7.28125 C 6.378906 -7.28125 6.1875 -7.359375 6.03125 -7.515625 C 5.882812 -7.679688 5.8125 -7.867188 5.8125 -8.078125 C 5.8125 -8.296875 5.875 -8.5 6 -8.6875 C 5.914062 -8.925781 5.738281 -9.117188 5.46875 -9.265625 C 5.207031 -9.410156 4.863281 -9.484375 4.4375 -9.484375 C 3.976562 -9.484375 3.5625 -9.332031 3.1875 -9.03125 C 2.8125 -8.738281 2.625 -8.367188 2.625 -7.921875 C 2.625 -7.535156 2.796875 -7.1875 3.140625 -6.875 C 3.484375 -6.570312 4.007812 -6.21875 4.71875 -5.8125 C 5.3125 -5.46875 5.796875 -5.160156 6.171875 -4.890625 C 6.546875 -4.617188 6.859375 -4.296875 7.109375 -3.921875 C 7.367188 -3.554688 7.5 -3.140625 7.5 -2.671875 C 7.5 -2.117188 7.34375 -1.625 7.03125 -1.1875 C 6.71875 -0.75 6.273438 -0.40625 5.703125 -0.15625 C 5.140625 0.09375 4.492188 0.21875 3.765625 0.21875 C 2.910156 0.21875 2.164062 0.0234375 1.53125 -0.359375 C 0.90625 -0.742188 0.59375 -1.257812 0.59375 -1.90625 C 0.59375 -2.1875 0.675781 -2.414062 0.84375 -2.59375 C 1.007812 -2.78125 1.210938 -2.875 1.453125 -2.875 C 1.703125 -2.875 1.898438 -2.789062 2.046875 -2.625 C 2.191406 -2.457031 2.265625 -2.265625 2.265625 -2.046875 C 2.265625 -1.816406 2.203125 -1.609375 2.078125 -1.421875 C 2.171875 -1.148438 2.375 -0.929688 2.6875 -0.765625 C 3.007812 -0.597656 3.359375 -0.515625 3.734375 -0.515625 C 4.429688 -0.515625 4.960938 -0.675781 5.328125 -1 C 5.691406 -1.320312 5.875 -1.789062 5.875 -2.40625 C 5.875 -2.84375 5.6875 -3.222656 5.3125 -3.546875 C 4.945312 -3.878906 4.382812 -4.265625 3.625 -4.703125 C 2.78125 -5.191406 2.144531 -5.632812 1.71875 -6.03125 C 1.289062 -6.425781 1.078125 -6.90625 1.078125 -7.46875 C 1.078125 -7.9375 1.21875 -8.375 1.5 -8.78125 C 1.789062 -9.195312 2.195312 -9.523438 2.71875 -9.765625 C 3.25 -10.015625 3.84375 -10.140625 4.5 -10.140625 Z M 4.5 -10.140625 "/></g></g></g><g fill="#000000" fill-opacity="1"><g transform="translate(182.210663, 121.532882)"><g><path d="M 5.515625 -10.140625 C 6.066406 -10.140625 6.570312 -10.035156 7.03125 -9.828125 C 7.488281 -9.628906 7.847656 -9.351562 8.109375 -9 C 8.367188 -8.644531 8.5 -8.25 8.5 -7.8125 C 8.5 -7.507812 8.414062 -7.269531 8.25 -7.09375 C 8.09375 -6.925781 7.882812 -6.84375 7.625 -6.84375 C 7.351562 -6.84375 7.148438 -6.925781 7.015625 -7.09375 C 6.878906 -7.269531 6.8125 -7.453125 6.8125 -7.640625 C 6.8125 -7.953125 6.894531 -8.203125 7.0625 -8.390625 C 7 -8.753906 6.820312 -9.019531 6.53125 -9.1875 C 6.25 -9.363281 5.90625 -9.453125 5.5 -9.453125 C 4.445312 -9.453125 3.6875 -8.960938 3.21875 -7.984375 C 2.75 -7.003906 2.515625 -5.867188 2.515625 -4.578125 C 2.515625 -3.253906 2.726562 -2.285156 3.15625 -1.671875 C 3.59375 -1.054688 4.1875 -0.75 4.9375 -0.75 C 5.519531 -0.75 6.082031 -0.941406 6.625 -1.328125 C 7.164062 -1.722656 7.617188 -2.363281 7.984375 -3.25 L 8.671875 -2.921875 C 8.191406 -1.816406 7.601562 -1.015625 6.90625 -0.515625 C 6.207031 -0.0234375 5.441406 0.21875 4.609375 0.21875 C 3.398438 0.21875 2.457031 -0.140625 1.78125 -0.859375 C 1.113281 -1.578125 0.78125 -2.664062 0.78125 -4.125 C 0.78125 -5.050781 0.953125 -5.976562 1.296875 -6.90625 C 1.648438 -7.832031 2.179688 -8.601562 2.890625 -9.21875 C 3.609375 -9.832031 4.484375 -10.140625 5.515625 -10.140625 Z M 5.515625 -10.140625 "/></g></g></g><g fill="#000000" fill-opacity="1"><g transform="translate(191.594187, 121.532882)"><g><path d="M 7.671875 -10.140625 C 8.085938 -10.140625 8.421875 -10.035156 8.671875 -9.828125 C 8.929688 -9.628906 9.0625 -9.347656 9.0625 -8.984375 C 9.0625 -8.734375 8.972656 -8.507812 8.796875 -8.3125 C 8.628906 -8.125 8.414062 -8.03125 8.15625 -8.03125 C 7.914062 -8.03125 7.707031 -8.101562 7.53125 -8.25 C 7.363281 -8.394531 7.269531 -8.601562 7.25 -8.875 C 7.1875 -8.882812 7.113281 -8.890625 7.03125 -8.890625 C 6.46875 -8.890625 5.921875 -8.445312 5.390625 -7.5625 C 4.867188 -6.675781 4.441406 -5.597656 4.109375 -4.328125 C 3.773438 -3.054688 3.609375 -1.898438 3.609375 -0.859375 C 3.609375 -0.734375 3.625 -0.445312 3.65625 0 L 2 0 C 1.988281 -0.113281 1.984375 -0.285156 1.984375 -0.515625 C 1.984375 -1.316406 2.085938 -2.671875 2.296875 -4.578125 L 2.5625 -6.890625 C 2.632812 -7.578125 2.671875 -8.03125 2.671875 -8.25 C 2.671875 -8.53125 2.632812 -8.75 2.5625 -8.90625 C 2.488281 -9.0625 2.347656 -9.140625 2.140625 -9.140625 C 1.890625 -9.140625 1.628906 -8.984375 1.359375 -8.671875 C 1.097656 -8.359375 0.875 -7.875 0.6875 -7.21875 L 0.140625 -7.34375 C 0.203125 -7.707031 0.34375 -8.109375 0.5625 -8.546875 C 0.78125 -8.984375 1.070312 -9.359375 1.4375 -9.671875 C 1.800781 -9.984375 2.226562 -10.140625 2.71875 -10.140625 C 3.238281 -10.140625 3.609375 -9.972656 3.828125 -9.640625 C 4.054688 -9.304688 4.171875 -8.832031 4.171875 -8.21875 C 4.171875 -7.601562 4.070312 -6.800781 3.875 -5.8125 L 3.921875 -5.8125 C 4.472656 -7.414062 5.054688 -8.535156 5.671875 -9.171875 C 6.296875 -9.816406 6.960938 -10.140625 7.671875 -10.140625 Z M 7.671875 -10.140625 "/></g></g></g><g fill="#000000" fill-opacity="1"><g transform="translate(200.62063, 121.532882)"><g><path d="M 5.59375 -10.140625 C 6.382812 -10.140625 7.046875 -9.953125 7.578125 -9.578125 C 8.109375 -9.210938 8.375 -8.640625 8.375 -7.859375 C 8.375 -6.878906 7.785156 -6.117188 6.609375 -5.578125 C 5.429688 -5.035156 4.066406 -4.675781 2.515625 -4.5 C 2.515625 -3.257812 2.695312 -2.328125 3.0625 -1.703125 C 3.4375 -1.085938 4.007812 -0.78125 4.78125 -0.78125 C 5.382812 -0.78125 5.972656 -0.976562 6.546875 -1.375 C 7.117188 -1.78125 7.613281 -2.378906 8.03125 -3.171875 L 8.6875 -2.796875 C 8.132812 -1.753906 7.515625 -0.988281 6.828125 -0.5 C 6.140625 -0.0195312 5.34375 0.21875 4.4375 0.21875 C 3.226562 0.21875 2.316406 -0.160156 1.703125 -0.921875 C 1.085938 -1.679688 0.78125 -2.726562 0.78125 -4.0625 C 0.78125 -5.132812 0.957031 -6.128906 1.3125 -7.046875 C 1.675781 -7.972656 2.222656 -8.71875 2.953125 -9.28125 C 3.679688 -9.851562 4.5625 -10.140625 5.59375 -10.140625 Z M 5.3125 -9.46875 C 4.46875 -9.46875 3.8125 -9.054688 3.34375 -8.234375 C 2.882812 -7.410156 2.617188 -6.40625 2.546875 -5.21875 C 3.691406 -5.375 4.675781 -5.691406 5.5 -6.171875 C 6.320312 -6.648438 6.734375 -7.242188 6.734375 -7.953125 C 6.734375 -8.390625 6.609375 -8.75 6.359375 -9.03125 C 6.117188 -9.320312 5.769531 -9.46875 5.3125 -9.46875 Z M 5.3125 -9.46875 "/></g></g></g><g fill="#000000" fill-opacity="1"><g transform="translate(210.08351, 121.532882)"><g><path d="M 5.59375 -10.140625 C 6.382812 -10.140625 7.046875 -9.953125 7.578125 -9.578125 C 8.109375 -9.210938 8.375 -8.640625 8.375 -7.859375 C 8.375 -6.878906 7.785156 -6.117188 6.609375 -5.578125 C 5.429688 -5.035156 4.066406 -4.675781 2.515625 -4.5 C 2.515625 -3.257812 2.695312 -2.328125 3.0625 -1.703125 C 3.4375 -1.085938 4.007812 -0.78125 4.78125 -0.78125 C 5.382812 -0.78125 5.972656 -0.976562 6.546875 -1.375 C 7.117188 -1.78125 7.613281 -2.378906 8.03125 -3.171875 L 8.6875 -2.796875 C 8.132812 -1.753906 7.515625 -0.988281 6.828125 -0.5 C 6.140625 -0.0195312 5.34375 0.21875 4.4375 0.21875 C 3.226562 0.21875 2.316406 -0.160156 1.703125 -0.921875 C 1.085938 -1.679688 0.78125 -2.726562 0.78125 -4.0625 C 0.78125 -5.132812 0.957031 -6.128906 1.3125 -7.046875 C 1.675781 -7.972656 2.222656 -8.71875 2.953125 -9.28125 C 3.679688 -9.851562 4.5625 -10.140625 5.59375 -10.140625 Z M 5.3125 -9.46875 C 4.46875 -9.46875 3.8125 -9.054688 3.34375 -8.234375 C 2.882812 -7.410156 2.617188 -6.40625 2.546875 -5.21875 C 3.691406 -5.375 4.675781 -5.691406 5.5 -6.171875 C 6.320312 -6.648438 6.734375 -7.242188 6.734375 -7.953125 C 6.734375 -8.390625 6.609375 -8.75 6.359375 -9.03125 C 6.117188 -9.320312 5.769531 -9.46875 5.3125 -9.46875 Z M 5.3125 -9.46875 "/></g></g></g><g fill="#000000" fill-opacity="1"><g transform="translate(219.54639, 121.532882)"><g><path d="M 3.953125 -9.921875 L 7.109375 -9.921875 L 7.046875 -9.171875 L 3.875 -9.125 L 3.734375 -7.859375 C 3.441406 -5.347656 3.296875 -3.566406 3.296875 -2.515625 C 3.296875 -2.003906 3.351562 -1.585938 3.46875 -1.265625 C 3.59375 -0.953125 3.847656 -0.796875 4.234375 -0.796875 C 4.921875 -0.796875 5.539062 -1.257812 6.09375 -2.1875 L 6.609375 -1.84375 C 6.203125 -1.144531 5.773438 -0.625 5.328125 -0.28125 C 4.878906 0.0507812 4.351562 0.21875 3.75 0.21875 C 3.019531 0.21875 2.492188 0 2.171875 -0.4375 C 1.847656 -0.875 1.6875 -1.4375 1.6875 -2.125 C 1.6875 -2.894531 1.734375 -3.90625 1.828125 -5.15625 C 1.921875 -6.40625 2.046875 -7.722656 2.203125 -9.109375 L 0.4375 -9.09375 L 0.5 -9.921875 C 1.289062 -9.921875 1.929688 -10.15625 2.421875 -10.625 C 2.910156 -11.09375 3.285156 -11.789062 3.546875 -12.71875 L 4.3125 -12.71875 Z M 3.953125 -9.921875 "/></g></g></g><g fill="#000000" fill-opacity="1"><g transform="translate(226.767539, 121.532882)"><g/></g></g><g fill="#000000" fill-opacity="1"><g transform="translate(231.985024, 121.532882)"><g><path d="M 12.4375 -9.703125 L 11.6875 -9.703125 C 11.71875 -10.535156 11.664062 -11.195312 11.53125 -11.6875 C 11.40625 -12.1875 11.164062 -12.554688 10.8125 -12.796875 C 10.46875 -13.046875 9.957031 -13.171875 9.28125 -13.171875 L 7.59375 -13.15625 L 6.953125 -2.359375 C 6.910156 -1.609375 6.863281 -1.085938 6.8125 -0.796875 L 8.453125 -0.875 L 8.40625 0 L 3.828125 0 L 3.875 -0.65625 C 4.28125 -0.664062 4.582031 -0.773438 4.78125 -0.984375 C 4.976562 -1.203125 5.113281 -1.46875 5.1875 -1.78125 C 5.257812 -2.101562 5.3125 -2.539062 5.34375 -3.09375 L 5.953125 -13.15625 L 3.90625 -13.140625 C 3.082031 -13.140625 2.484375 -12.863281 2.109375 -12.3125 C 1.734375 -11.757812 1.515625 -10.890625 1.453125 -9.703125 L 0.71875 -9.703125 L 1.046875 -13.890625 L 12.546875 -13.890625 Z M 12.4375 -9.703125 "/></g></g></g><g fill="#000000" fill-opacity="1"><g transform="translate(244.602197, 121.532882)"><g><path d="M 7.671875 -10.140625 C 8.085938 -10.140625 8.421875 -10.035156 8.671875 -9.828125 C 8.929688 -9.628906 9.0625 -9.347656 9.0625 -8.984375 C 9.0625 -8.734375 8.972656 -8.507812 8.796875 -8.3125 C 8.628906 -8.125 8.414062 -8.03125 8.15625 -8.03125 C 7.914062 -8.03125 7.707031 -8.101562 7.53125 -8.25 C 7.363281 -8.394531 7.269531 -8.601562 7.25 -8.875 C 7.1875 -8.882812 7.113281 -8.890625 7.03125 -8.890625 C 6.46875 -8.890625 5.921875 -8.445312 5.390625 -7.5625 C 4.867188 -6.675781 4.441406 -5.597656 4.109375 -4.328125 C 3.773438 -3.054688 3.609375 -1.898438 3.609375 -0.859375 C 3.609375 -0.734375 3.625 -0.445312 3.65625 0 L 2 0 C 1.988281 -0.113281 1.984375 -0.285156 1.984375 -0.515625 C 1.984375 -1.316406 2.085938 -2.671875 2.296875 -4.578125 L 2.5625 -6.890625 C 2.632812 -7.578125 2.671875 -8.03125 2.671875 -8.25 C 2.671875 -8.53125 2.632812 -8.75 2.5625 -8.90625 C 2.488281 -9.0625 2.347656 -9.140625 2.140625 -9.140625 C 1.890625 -9.140625 1.628906 -8.984375 1.359375 -8.671875 C 1.097656 -8.359375 0.875 -7.875 0.6875 -7.21875 L 0.140625 -7.34375 C 0.203125 -7.707031 0.34375 -8.109375 0.5625 -8.546875 C 0.78125 -8.984375 1.070312 -9.359375 1.4375 -9.671875 C 1.800781 -9.984375 2.226562 -10.140625 2.71875 -10.140625 C 3.238281 -10.140625 3.609375 -9.972656 3.828125 -9.640625 C 4.054688 -9.304688 4.171875 -8.832031 4.171875 -8.21875 C 4.171875 -7.601562 4.070312 -6.800781 3.875 -5.8125 L 3.921875 -5.8125 C 4.472656 -7.414062 5.054688 -8.535156 5.671875 -9.171875 C 6.296875 -9.816406 6.960938 -10.140625 7.671875 -10.140625 Z M 7.671875 -10.140625 "/></g></g></g><g fill="#000000" fill-opacity="1"><g transform="translate(253.311182, 121.532882)"><g><path d="M 6.53125 -10.140625 C 7.425781 -10.140625 8.3125 -10.023438 9.1875 -9.796875 C 8.601562 -5.484375 8.3125 -2.835938 8.3125 -1.859375 C 8.3125 -1.515625 8.34375 -1.25 8.40625 -1.0625 C 8.476562 -0.875 8.632812 -0.78125 8.875 -0.78125 C 9.125 -0.78125 9.378906 -0.9375 9.640625 -1.25 C 9.910156 -1.5625 10.132812 -2.046875 10.3125 -2.703125 L 10.875 -2.578125 C 10.8125 -2.210938 10.671875 -1.8125 10.453125 -1.375 C 10.234375 -0.9375 9.941406 -0.5625 9.578125 -0.25 C 9.210938 0.0625 8.785156 0.21875 8.296875 0.21875 C 7.316406 0.21875 6.828125 -0.375 6.828125 -1.5625 C 6.828125 -2.144531 6.945312 -3.035156 7.1875 -4.234375 L 7.125 -4.234375 C 6.570312 -2.484375 5.960938 -1.300781 5.296875 -0.6875 C 4.640625 -0.0820312 3.957031 0.21875 3.25 0.21875 C 2.488281 0.21875 1.878906 -0.0546875 1.421875 -0.609375 C 0.960938 -1.171875 0.734375 -2.046875 0.734375 -3.234375 C 0.734375 -4.503906 0.953125 -5.660156 1.390625 -6.703125 C 1.828125 -7.753906 2.476562 -8.585938 3.34375 -9.203125 C 4.21875 -9.828125 5.28125 -10.140625 6.53125 -10.140625 Z M 5.90625 -9.421875 C 5.144531 -9.421875 4.5 -9.144531 3.96875 -8.59375 C 3.4375 -8.050781 3.039062 -7.332031 2.78125 -6.4375 C 2.53125 -5.539062 2.40625 -4.585938 2.40625 -3.578125 C 2.40625 -1.628906 2.832031 -0.65625 3.6875 -0.65625 C 4.269531 -0.65625 4.851562 -1.109375 5.4375 -2.015625 C 6.019531 -2.929688 6.503906 -4.0625 6.890625 -5.40625 C 7.273438 -6.75 7.46875 -8.007812 7.46875 -9.1875 C 7.0625 -9.34375 6.539062 -9.421875 5.90625 -9.421875 Z M 5.90625 -9.421875 "/></g></g></g><g fill="#000000" fill-opacity="1"><g transform="translate(264.182588, 121.532882)"><g><path d="M 4.5 -10.140625 C 5.28125 -10.140625 5.960938 -9.957031 6.546875 -9.59375 C 7.140625 -9.226562 7.4375 -8.765625 7.4375 -8.203125 C 7.4375 -7.921875 7.359375 -7.695312 7.203125 -7.53125 C 7.046875 -7.363281 6.847656 -7.28125 6.609375 -7.28125 C 6.378906 -7.28125 6.1875 -7.359375 6.03125 -7.515625 C 5.882812 -7.679688 5.8125 -7.867188 5.8125 -8.078125 C 5.8125 -8.296875 5.875 -8.5 6 -8.6875 C 5.914062 -8.925781 5.738281 -9.117188 5.46875 -9.265625 C 5.207031 -9.410156 4.863281 -9.484375 4.4375 -9.484375 C 3.976562 -9.484375 3.5625 -9.332031 3.1875 -9.03125 C 2.8125 -8.738281 2.625 -8.367188 2.625 -7.921875 C 2.625 -7.535156 2.796875 -7.1875 3.140625 -6.875 C 3.484375 -6.570312 4.007812 -6.21875 4.71875 -5.8125 C 5.3125 -5.46875 5.796875 -5.160156 6.171875 -4.890625 C 6.546875 -4.617188 6.859375 -4.296875 7.109375 -3.921875 C 7.367188 -3.554688 7.5 -3.140625 7.5 -2.671875 C 7.5 -2.117188 7.34375 -1.625 7.03125 -1.1875 C 6.71875 -0.75 6.273438 -0.40625 5.703125 -0.15625 C 5.140625 0.09375 4.492188 0.21875 3.765625 0.21875 C 2.910156 0.21875 2.164062 0.0234375 1.53125 -0.359375 C 0.90625 -0.742188 0.59375 -1.257812 0.59375 -1.90625 C 0.59375 -2.1875 0.675781 -2.414062 0.84375 -2.59375 C 1.007812 -2.78125 1.210938 -2.875 1.453125 -2.875 C 1.703125 -2.875 1.898438 -2.789062 2.046875 -2.625 C 2.191406 -2.457031 2.265625 -2.265625 2.265625 -2.046875 C 2.265625 -1.816406 2.203125 -1.609375 2.078125 -1.421875 C 2.171875 -1.148438 2.375 -0.929688 2.6875 -0.765625 C 3.007812 -0.597656 3.359375 -0.515625 3.734375 -0.515625 C 4.429688 -0.515625 4.960938 -0.675781 5.328125 -1 C 5.691406 -1.320312 5.875 -1.789062 5.875 -2.40625 C 5.875 -2.84375 5.6875 -3.222656 5.3125 -3.546875 C 4.945312 -3.878906 4.382812 -4.265625 3.625 -4.703125 C 2.78125 -5.191406 2.144531 -5.632812 1.71875 -6.03125 C 1.289062 -6.425781 1.078125 -6.90625 1.078125 -7.46875 C 1.078125 -7.9375 1.21875 -8.375 1.5 -8.78125 C 1.789062 -9.195312 2.195312 -9.523438 2.71875 -9.765625 C 3.25 -10.015625 3.84375 -10.140625 4.5 -10.140625 Z M 4.5 -10.140625 "/></g></g></g><g fill="#000000" fill-opacity="1"><g transform="translate(272.673389, 121.532882)"><g><path d="M 3.984375 -13.984375 C 3.773438 -12.710938 3.648438 -11.921875 3.609375 -11.609375 C 3.515625 -10.929688 3.40625 -9.953125 3.28125 -8.671875 C 3.15625 -7.398438 3.066406 -6.414062 3.015625 -5.71875 L 3.078125 -5.71875 C 3.703125 -7.394531 4.328125 -8.550781 4.953125 -9.1875 C 5.578125 -9.820312 6.253906 -10.140625 6.984375 -10.140625 C 7.722656 -10.140625 8.269531 -9.894531 8.625 -9.40625 C 8.988281 -8.925781 9.171875 -8.3125 9.171875 -7.5625 C 9.171875 -6.675781 9.054688 -5.40625 8.828125 -3.75 C 8.679688 -2.707031 8.609375 -2.019531 8.609375 -1.6875 C 8.609375 -1.394531 8.644531 -1.171875 8.71875 -1.015625 C 8.789062 -0.859375 8.929688 -0.78125 9.140625 -0.78125 C 9.398438 -0.78125 9.660156 -0.929688 9.921875 -1.234375 C 10.179688 -1.546875 10.40625 -2.035156 10.59375 -2.703125 L 11.09375 -2.5625 C 10.976562 -1.925781 10.703125 -1.300781 10.265625 -0.6875 C 9.835938 -0.0820312 9.273438 0.21875 8.578125 0.21875 C 7.972656 0.21875 7.550781 0.0625 7.3125 -0.25 C 7.082031 -0.5625 6.96875 -1.039062 6.96875 -1.6875 C 6.96875 -2.1875 7.050781 -3.066406 7.21875 -4.328125 C 7.25 -4.492188 7.3125 -4.984375 7.40625 -5.796875 C 7.5 -6.617188 7.546875 -7.351562 7.546875 -8 C 7.546875 -8.300781 7.472656 -8.578125 7.328125 -8.828125 C 7.179688 -9.078125 6.9375 -9.203125 6.59375 -9.203125 C 6.019531 -9.203125 5.4375 -8.78125 4.84375 -7.9375 C 4.25 -7.09375 3.757812 -6.03125 3.375 -4.75 C 2.988281 -3.476562 2.796875 -2.242188 2.796875 -1.046875 C 2.796875 -0.796875 2.8125 -0.445312 2.84375 0 L 1.203125 0 C 1.191406 -0.113281 1.1875 -0.285156 1.1875 -0.515625 C 1.1875 -1.492188 1.296875 -3.398438 1.515625 -6.234375 C 1.742188 -9.078125 1.96875 -11.226562 2.1875 -12.6875 C 2.207031 -12.84375 2.265625 -13.191406 2.359375 -13.734375 L 0.96875 -13.65625 L 1.046875 -14.453125 C 1.847656 -14.453125 2.421875 -14.492188 2.765625 -14.578125 C 3.109375 -14.671875 3.378906 -14.804688 3.578125 -14.984375 L 4.140625 -14.984375 Z M 3.984375 -13.984375 "/></g></g></g><g fill="#000000" fill-opacity="1"><g transform="translate(284.020921, 121.532882)"><g/></g></g><g fill="#000000" fill-opacity="1"><g transform="translate(289.238395, 121.532882)"><g><path d="M 5.640625 -14.203125 C 6.222656 -14.203125 6.8125 -14.125 7.40625 -13.96875 C 8.007812 -13.820312 8.550781 -13.566406 9.03125 -13.203125 L 8.984375 -14.046875 L 10 -14.046875 L 9.78125 -9.6875 L 9.0625 -9.6875 C 9.050781 -10.726562 8.757812 -11.609375 8.1875 -12.328125 C 7.625 -13.054688 6.800781 -13.421875 5.71875 -13.421875 C 4.894531 -13.421875 4.238281 -13.175781 3.75 -12.6875 C 3.257812 -12.207031 3.015625 -11.625 3.015625 -10.9375 C 3.015625 -10.4375 3.160156 -10.003906 3.453125 -9.640625 C 3.742188 -9.273438 4.097656 -8.960938 4.515625 -8.703125 C 4.941406 -8.453125 5.523438 -8.15625 6.265625 -7.8125 C 7.117188 -7.4375 7.804688 -7.082031 8.328125 -6.75 C 8.859375 -6.425781 9.304688 -6.015625 9.671875 -5.515625 C 10.035156 -5.015625 10.21875 -4.398438 10.21875 -3.671875 C 10.21875 -2.890625 10.023438 -2.195312 9.640625 -1.59375 C 9.253906 -0.988281 8.695312 -0.519531 7.96875 -0.1875 C 7.25 0.144531 6.382812 0.3125 5.375 0.3125 C 4.769531 0.3125 4.148438 0.242188 3.515625 0.109375 C 2.890625 -0.015625 2.351562 -0.226562 1.90625 -0.53125 L 1.96875 0.15625 L 0.9375 0.15625 L 1.03125 -4.0625 L 1.8125 -4.0625 C 1.820312 -2.882812 2.160156 -2 2.828125 -1.40625 C 3.503906 -0.8125 4.398438 -0.515625 5.515625 -0.515625 C 6.359375 -0.515625 7.070312 -0.742188 7.65625 -1.203125 C 8.25 -1.671875 8.546875 -2.316406 8.546875 -3.140625 C 8.546875 -3.691406 8.394531 -4.164062 8.09375 -4.5625 C 7.789062 -4.957031 7.421875 -5.285156 6.984375 -5.546875 C 6.546875 -5.816406 5.941406 -6.140625 5.171875 -6.515625 C 4.359375 -6.890625 3.703125 -7.226562 3.203125 -7.53125 C 2.703125 -7.84375 2.28125 -8.234375 1.9375 -8.703125 C 1.59375 -9.179688 1.421875 -9.765625 1.421875 -10.453125 C 1.421875 -10.984375 1.546875 -11.535156 1.796875 -12.109375 C 2.054688 -12.691406 2.5 -13.1875 3.125 -13.59375 C 3.75 -14 4.585938 -14.203125 5.640625 -14.203125 Z M 5.640625 -14.203125 "/></g></g></g><g fill="#000000" fill-opacity="1"><g transform="translate(300.466904, 121.532882)"><g><path d="M 5.59375 -10.140625 C 6.382812 -10.140625 7.046875 -9.953125 7.578125 -9.578125 C 8.109375 -9.210938 8.375 -8.640625 8.375 -7.859375 C 8.375 -6.878906 7.785156 -6.117188 6.609375 -5.578125 C 5.429688 -5.035156 4.066406 -4.675781 2.515625 -4.5 C 2.515625 -3.257812 2.695312 -2.328125 3.0625 -1.703125 C 3.4375 -1.085938 4.007812 -0.78125 4.78125 -0.78125 C 5.382812 -0.78125 5.972656 -0.976562 6.546875 -1.375 C 7.117188 -1.78125 7.613281 -2.378906 8.03125 -3.171875 L 8.6875 -2.796875 C 8.132812 -1.753906 7.515625 -0.988281 6.828125 -0.5 C 6.140625 -0.0195312 5.34375 0.21875 4.4375 0.21875 C 3.226562 0.21875 2.316406 -0.160156 1.703125 -0.921875 C 1.085938 -1.679688 0.78125 -2.726562 0.78125 -4.0625 C 0.78125 -5.132812 0.957031 -6.128906 1.3125 -7.046875 C 1.675781 -7.972656 2.222656 -8.71875 2.953125 -9.28125 C 3.679688 -9.851562 4.5625 -10.140625 5.59375 -10.140625 Z M 5.3125 -9.46875 C 4.46875 -9.46875 3.8125 -9.054688 3.34375 -8.234375 C 2.882812 -7.410156 2.617188 -6.40625 2.546875 -5.21875 C 3.691406 -5.375 4.675781 -5.691406 5.5 -6.171875 C 6.320312 -6.648438 6.734375 -7.242188 6.734375 -7.953125 C 6.734375 -8.390625 6.609375 -8.75 6.359375 -9.03125 C 6.117188 -9.320312 5.769531 -9.46875 5.3125 -9.46875 Z M 5.3125 -9.46875 "/></g></g></g><g fill="#000000" fill-opacity="1"><g transform="translate(309.929772, 121.532882)"><g><path d="M 7.671875 -10.140625 C 8.085938 -10.140625 8.421875 -10.035156 8.671875 -9.828125 C 8.929688 -9.628906 9.0625 -9.347656 9.0625 -8.984375 C 9.0625 -8.734375 8.972656 -8.507812 8.796875 -8.3125 C 8.628906 -8.125 8.414062 -8.03125 8.15625 -8.03125 C 7.914062 -8.03125 7.707031 -8.101562 7.53125 -8.25 C 7.363281 -8.394531 7.269531 -8.601562 7.25 -8.875 C 7.1875 -8.882812 7.113281 -8.890625 7.03125 -8.890625 C 6.46875 -8.890625 5.921875 -8.445312 5.390625 -7.5625 C 4.867188 -6.675781 4.441406 -5.597656 4.109375 -4.328125 C 3.773438 -3.054688 3.609375 -1.898438 3.609375 -0.859375 C 3.609375 -0.734375 3.625 -0.445312 3.65625 0 L 2 0 C 1.988281 -0.113281 1.984375 -0.285156 1.984375 -0.515625 C 1.984375 -1.316406 2.085938 -2.671875 2.296875 -4.578125 L 2.5625 -6.890625 C 2.632812 -7.578125 2.671875 -8.03125 2.671875 -8.25 C 2.671875 -8.53125 2.632812 -8.75 2.5625 -8.90625 C 2.488281 -9.0625 2.347656 -9.140625 2.140625 -9.140625 C 1.890625 -9.140625 1.628906 -8.984375 1.359375 -8.671875 C 1.097656 -8.359375 0.875 -7.875 0.6875 -7.21875 L 0.140625 -7.34375 C 0.203125 -7.707031 0.34375 -8.109375 0.5625 -8.546875 C 0.78125 -8.984375 1.070312 -9.359375 1.4375 -9.671875 C 1.800781 -9.984375 2.226562 -10.140625 2.71875 -10.140625 C 3.238281 -10.140625 3.609375 -9.972656 3.828125 -9.640625 C 4.054688 -9.304688 4.171875 -8.832031 4.171875 -8.21875 C 4.171875 -7.601562 4.070312 -6.800781 3.875 -5.8125 L 3.921875 -5.8125 C 4.472656 -7.414062 5.054688 -8.535156 5.671875 -9.171875 C 6.296875 -9.816406 6.960938 -10.140625 7.671875 -10.140625 Z M 7.671875 -10.140625 "/></g></g></g><g fill="#000000" fill-opacity="1"><g transform="translate(318.956205, 121.532882)"><g><path d="M 7.203125 -10.140625 C 7.984375 -10.140625 8.582031 -9.8125 9 -9.15625 C 9.414062 -8.5 9.625 -7.671875 9.625 -6.671875 C 9.625 -5.796875 9.457031 -4.898438 9.125 -3.984375 C 8.851562 -3.253906 8.472656 -2.566406 7.984375 -1.921875 C 7.492188 -1.285156 6.929688 -0.769531 6.296875 -0.375 C 5.671875 0.0195312 5.023438 0.21875 4.359375 0.21875 C 3.566406 0.21875 3 -0.046875 2.65625 -0.578125 C 2.3125 -1.109375 2.140625 -1.789062 2.140625 -2.625 C 2.140625 -3.332031 2.175781 -4.082031 2.25 -4.875 C 2.320312 -5.675781 2.363281 -6.148438 2.375 -6.296875 C 2.488281 -7.160156 2.546875 -7.804688 2.546875 -8.234375 C 2.546875 -8.515625 2.503906 -8.734375 2.421875 -8.890625 C 2.335938 -9.046875 2.191406 -9.125 1.984375 -9.125 C 1.742188 -9.125 1.5 -8.960938 1.25 -8.640625 C 1.007812 -8.328125 0.804688 -7.84375 0.640625 -7.1875 L 0.078125 -7.328125 C 0.140625 -7.703125 0.269531 -8.101562 0.46875 -8.53125 C 0.675781 -8.96875 0.957031 -9.34375 1.3125 -9.65625 C 1.675781 -9.976562 2.113281 -10.140625 2.625 -10.140625 C 3.132812 -10.140625 3.519531 -9.960938 3.78125 -9.609375 C 4.050781 -9.265625 4.1875 -8.765625 4.1875 -8.109375 C 4.1875 -7.546875 4.113281 -6.378906 3.96875 -4.609375 C 3.863281 -3.253906 3.8125 -2.429688 3.8125 -2.140625 C 3.8125 -1.753906 3.867188 -1.441406 3.984375 -1.203125 C 4.109375 -0.972656 4.351562 -0.859375 4.71875 -0.859375 C 5.15625 -0.859375 5.617188 -1.019531 6.109375 -1.34375 C 6.609375 -1.675781 7.0625 -2.117188 7.46875 -2.671875 C 7.875 -3.234375 8.175781 -3.820312 8.375 -4.4375 C 8.457031 -4.675781 8.523438 -4.984375 8.578125 -5.359375 C 8.640625 -5.742188 8.671875 -6.128906 8.671875 -6.515625 C 8.671875 -7.066406 8.59375 -7.550781 8.4375 -7.96875 C 8.289062 -8.382812 8.046875 -8.664062 7.703125 -8.8125 C 7.554688 -8.476562 7.289062 -8.3125 6.90625 -8.3125 C 6.695312 -8.3125 6.507812 -8.378906 6.34375 -8.515625 C 6.175781 -8.660156 6.085938 -8.867188 6.078125 -9.140625 C 6.078125 -9.398438 6.164062 -9.628906 6.34375 -9.828125 C 6.53125 -10.035156 6.816406 -10.140625 7.203125 -10.140625 Z M 7.203125 -10.140625 "/></g></g></g><g fill="#000000" fill-opacity="1"><g transform="translate(329.391175, 121.532882)"><g><path d="M 3.765625 -14.421875 C 4.078125 -14.421875 4.332031 -14.316406 4.53125 -14.109375 C 4.726562 -13.898438 4.828125 -13.628906 4.828125 -13.296875 C 4.828125 -12.960938 4.71875 -12.691406 4.5 -12.484375 C 4.289062 -12.285156 4.039062 -12.1875 3.75 -12.1875 C 3.457031 -12.1875 3.207031 -12.285156 3 -12.484375 C 2.800781 -12.691406 2.703125 -12.960938 2.703125 -13.296875 C 2.703125 -13.628906 2.804688 -13.898438 3.015625 -14.109375 C 3.222656 -14.316406 3.472656 -14.421875 3.765625 -14.421875 Z M 2.640625 -10.140625 C 3.179688 -10.140625 3.59375 -9.953125 3.875 -9.578125 C 4.164062 -9.210938 4.3125 -8.710938 4.3125 -8.078125 C 4.3125 -7.554688 4.195312 -6.648438 3.96875 -5.359375 C 3.832031 -4.523438 3.726562 -3.828125 3.65625 -3.265625 C 3.582031 -2.703125 3.546875 -2.148438 3.546875 -1.609375 C 3.546875 -1.054688 3.753906 -0.78125 4.171875 -0.78125 C 4.421875 -0.78125 4.675781 -0.9375 4.9375 -1.25 C 5.207031 -1.5625 5.429688 -2.046875 5.609375 -2.703125 L 6.171875 -2.578125 C 6.015625 -1.867188 5.726562 -1.222656 5.3125 -0.640625 C 4.90625 -0.0664062 4.367188 0.21875 3.703125 0.21875 C 2.515625 0.21875 1.921875 -0.398438 1.921875 -1.640625 C 1.921875 -2.160156 1.953125 -2.664062 2.015625 -3.15625 C 2.085938 -3.644531 2.191406 -4.253906 2.328125 -4.984375 C 2.453125 -5.785156 2.546875 -6.40625 2.609375 -6.84375 C 2.671875 -7.289062 2.703125 -7.757812 2.703125 -8.25 C 2.703125 -8.476562 2.65625 -8.679688 2.5625 -8.859375 C 2.476562 -9.046875 2.335938 -9.140625 2.140625 -9.140625 C 1.890625 -9.140625 1.628906 -8.984375 1.359375 -8.671875 C 1.097656 -8.359375 0.875 -7.875 0.6875 -7.21875 L 0.140625 -7.34375 C 0.253906 -7.988281 0.523438 -8.613281 0.953125 -9.21875 C 1.378906 -9.832031 1.941406 -10.140625 2.640625 -10.140625 Z M 2.640625 -10.140625 "/></g></g></g><g fill="#000000" fill-opacity="1"><g transform="translate(335.818796, 121.532882)"><g><path d="M 5.515625 -10.140625 C 6.066406 -10.140625 6.570312 -10.035156 7.03125 -9.828125 C 7.488281 -9.628906 7.847656 -9.351562 8.109375 -9 C 8.367188 -8.644531 8.5 -8.25 8.5 -7.8125 C 8.5 -7.507812 8.414062 -7.269531 8.25 -7.09375 C 8.09375 -6.925781 7.882812 -6.84375 7.625 -6.84375 C 7.351562 -6.84375 7.148438 -6.925781 7.015625 -7.09375 C 6.878906 -7.269531 6.8125 -7.453125 6.8125 -7.640625 C 6.8125 -7.953125 6.894531 -8.203125 7.0625 -8.390625 C 7 -8.753906 6.820312 -9.019531 6.53125 -9.1875 C 6.25 -9.363281 5.90625 -9.453125 5.5 -9.453125 C 4.445312 -9.453125 3.6875 -8.960938 3.21875 -7.984375 C 2.75 -7.003906 2.515625 -5.867188 2.515625 -4.578125 C 2.515625 -3.253906 2.726562 -2.285156 3.15625 -1.671875 C 3.59375 -1.054688 4.1875 -0.75 4.9375 -0.75 C 5.519531 -0.75 6.082031 -0.941406 6.625 -1.328125 C 7.164062 -1.722656 7.617188 -2.363281 7.984375 -3.25 L 8.671875 -2.921875 C 8.191406 -1.816406 7.601562 -1.015625 6.90625 -0.515625 C 6.207031 -0.0234375 5.441406 0.21875 4.609375 0.21875 C 3.398438 0.21875 2.457031 -0.140625 1.78125 -0.859375 C 1.113281 -1.578125 0.78125 -2.664062 0.78125 -4.125 C 0.78125 -5.050781 0.953125 -5.976562 1.296875 -6.90625 C 1.648438 -7.832031 2.179688 -8.601562 2.890625 -9.21875 C 3.609375 -9.832031 4.484375 -10.140625 5.515625 -10.140625 Z M 5.515625 -10.140625 "/></g></g></g><g fill="#000000" fill-opacity="1"><g transform="translate(345.202331, 121.532882)"><g><path d="M 5.59375 -10.140625 C 6.382812 -10.140625 7.046875 -9.953125 7.578125 -9.578125 C 8.109375 -9.210938 8.375 -8.640625 8.375 -7.859375 C 8.375 -6.878906 7.785156 -6.117188 6.609375 -5.578125 C 5.429688 -5.035156 4.066406 -4.675781 2.515625 -4.5 C 2.515625 -3.257812 2.695312 -2.328125 3.0625 -1.703125 C 3.4375 -1.085938 4.007812 -0.78125 4.78125 -0.78125 C 5.382812 -0.78125 5.972656 -0.976562 6.546875 -1.375 C 7.117188 -1.78125 7.613281 -2.378906 8.03125 -3.171875 L 8.6875 -2.796875 C 8.132812 -1.753906 7.515625 -0.988281 6.828125 -0.5 C 6.140625 -0.0195312 5.34375 0.21875 4.4375 0.21875 C 3.226562 0.21875 2.316406 -0.160156 1.703125 -0.921875 C 1.085938 -1.679688 0.78125 -2.726562 0.78125 -4.0625 C 0.78125 -5.132812 0.957031 -6.128906 1.3125 -7.046875 C 1.675781 -7.972656 2.222656 -8.71875 2.953125 -9.28125 C 3.679688 -9.851562 4.5625 -10.140625 5.59375 -10.140625 Z M 5.3125 -9.46875 C 4.46875 -9.46875 3.8125 -9.054688 3.34375 -8.234375 C 2.882812 -7.410156 2.617188 -6.40625 2.546875 -5.21875 C 3.691406 -5.375 4.675781 -5.691406 5.5 -6.171875 C 6.320312 -6.648438 6.734375 -7.242188 6.734375 -7.953125 C 6.734375 -8.390625 6.609375 -8.75 6.359375 -9.03125 C 6.117188 -9.320312 5.769531 -9.46875 5.3125 -9.46875 Z M 5.3125 -9.46875 "/></g></g></g><g fill="#000000" fill-opacity="1"><g transform="translate(354.6652, 121.532882)"><g><path d="M 4.5 -10.140625 C 5.28125 -10.140625 5.960938 -9.957031 6.546875 -9.59375 C 7.140625 -9.226562 7.4375 -8.765625 7.4375 -8.203125 C 7.4375 -7.921875 7.359375 -7.695312 7.203125 -7.53125 C 7.046875 -7.363281 6.847656 -7.28125 6.609375 -7.28125 C 6.378906 -7.28125 6.1875 -7.359375 6.03125 -7.515625 C 5.882812 -7.679688 5.8125 -7.867188 5.8125 -8.078125 C 5.8125 -8.296875 5.875 -8.5 6 -8.6875 C 5.914062 -8.925781 5.738281 -9.117188 5.46875 -9.265625 C 5.207031 -9.410156 4.863281 -9.484375 4.4375 -9.484375 C 3.976562 -9.484375 3.5625 -9.332031 3.1875 -9.03125 C 2.8125 -8.738281 2.625 -8.367188 2.625 -7.921875 C 2.625 -7.535156 2.796875 -7.1875 3.140625 -6.875 C 3.484375 -6.570312 4.007812 -6.21875 4.71875 -5.8125 C 5.3125 -5.46875 5.796875 -5.160156 6.171875 -4.890625 C 6.546875 -4.617188 6.859375 -4.296875 7.109375 -3.921875 C 7.367188 -3.554688 7.5 -3.140625 7.5 -2.671875 C 7.5 -2.117188 7.34375 -1.625 7.03125 -1.1875 C 6.71875 -0.75 6.273438 -0.40625 5.703125 -0.15625 C 5.140625 0.09375 4.492188 0.21875 3.765625 0.21875 C 2.910156 0.21875 2.164062 0.0234375 1.53125 -0.359375 C 0.90625 -0.742188 0.59375 -1.257812 0.59375 -1.90625 C 0.59375 -2.1875 0.675781 -2.414062 0.84375 -2.59375 C 1.007812 -2.78125 1.210938 -2.875 1.453125 -2.875 C 1.703125 -2.875 1.898438 -2.789062 2.046875 -2.625 C 2.191406 -2.457031 2.265625 -2.265625 2.265625 -2.046875 C 2.265625 -1.816406 2.203125 -1.609375 2.078125 -1.421875 C 2.171875 -1.148438 2.375 -0.929688 2.6875 -0.765625 C 3.007812 -0.597656 3.359375 -0.515625 3.734375 -0.515625 C 4.429688 -0.515625 4.960938 -0.675781 5.328125 -1 C 5.691406 -1.320312 5.875 -1.789062 5.875 -2.40625 C 5.875 -2.84375 5.6875 -3.222656 5.3125 -3.546875 C 4.945312 -3.878906 4.382812 -4.265625 3.625 -4.703125 C 2.78125 -5.191406 2.144531 -5.632812 1.71875 -6.03125 C 1.289062 -6.425781 1.078125 -6.90625 1.078125 -7.46875 C 1.078125 -7.9375 1.21875 -8.375 1.5 -8.78125 C 1.789062 -9.195312 2.195312 -9.523438 2.71875 -9.765625 C 3.25 -10.015625 3.84375 -10.140625 4.5 -10.140625 Z M 4.5 -10.140625 "/></g></g></g><g fill="#000000" fill-opacity="1"><g transform="translate(363.158537, 121.532882)"><g/></g></g><g fill="#000000" fill-opacity="1"><g transform="translate(190.005933, 18.010391)"><g><path d="M 10.578125 -8.25 L 9.9375 -8.25 C 9.957031 -8.957031 9.910156 -9.519531 9.796875 -9.9375 C 9.691406 -10.363281 9.488281 -10.675781 9.1875 -10.875 C 8.894531 -11.082031 8.460938 -11.1875 7.890625 -11.1875 L 6.453125 -11.171875 L 5.90625 -2 C 5.863281 -1.363281 5.820312 -0.921875 5.78125 -0.671875 L 7.1875 -0.734375 L 7.140625 0 L 3.25 0 L 3.28125 -0.5625 C 3.632812 -0.570312 3.894531 -0.664062 4.0625 -0.84375 C 4.226562 -1.019531 4.34375 -1.242188 4.40625 -1.515625 C 4.46875 -1.785156 4.507812 -2.15625 4.53125 -2.625 L 5.0625 -11.171875 L 3.328125 -11.15625 C 2.628906 -11.15625 2.117188 -10.921875 1.796875 -10.453125 C 1.472656 -9.992188 1.285156 -9.257812 1.234375 -8.25 L 0.609375 -8.25 L 0.890625 -11.796875 L 10.65625 -11.796875 Z M 10.578125 -8.25 "/></g></g></g><g fill="#000000" fill-opacity="1"><g transform="translate(199.886603, 18.010391)"><g><path d="M 4.828125 -8.609375 C 5.429688 -8.609375 5.976562 -8.460938 6.46875 -8.171875 C 6.957031 -7.878906 7.335938 -7.453125 7.609375 -6.890625 C 7.890625 -6.335938 8.03125 -5.679688 8.03125 -4.921875 C 8.03125 -4.003906 7.863281 -3.15625 7.53125 -2.375 C 7.195312 -1.601562 6.71875 -0.984375 6.09375 -0.515625 C 5.46875 -0.046875 4.734375 0.1875 3.890625 0.1875 C 2.828125 0.1875 2.019531 -0.160156 1.46875 -0.859375 C 0.925781 -1.566406 0.65625 -2.476562 0.65625 -3.59375 C 0.65625 -4.507812 0.820312 -5.347656 1.15625 -6.109375 C 1.5 -6.878906 1.984375 -7.488281 2.609375 -7.9375 C 3.242188 -8.382812 3.984375 -8.609375 4.828125 -8.609375 Z M 4.546875 -7.984375 C 4.054688 -7.984375 3.628906 -7.804688 3.265625 -7.453125 C 2.898438 -7.097656 2.617188 -6.613281 2.421875 -6 C 2.234375 -5.394531 2.140625 -4.71875 2.140625 -3.96875 C 2.140625 -3.03125 2.289062 -2.207031 2.59375 -1.5 C 2.894531 -0.800781 3.390625 -0.453125 4.078125 -0.453125 C 4.648438 -0.453125 5.117188 -0.671875 5.484375 -1.109375 C 5.847656 -1.546875 6.113281 -2.082031 6.28125 -2.71875 C 6.457031 -3.363281 6.546875 -3.992188 6.546875 -4.609375 C 6.546875 -5.546875 6.394531 -6.34375 6.09375 -7 C 5.789062 -7.65625 5.273438 -7.984375 4.546875 -7.984375 Z M 4.546875 -7.984375 "/></g></g></g><g fill="#000000" fill-opacity="1"><g transform="translate(208.671412, 18.010391)"><g><path d="M 6.671875 -8.609375 C 7.304688 -8.609375 7.769531 -8.40625 8.0625 -8 C 8.363281 -7.601562 8.515625 -7.078125 8.515625 -6.421875 C 8.515625 -5.671875 8.40625 -4.59375 8.1875 -3.1875 C 8.070312 -2.300781 8.015625 -1.71875 8.015625 -1.4375 C 8.015625 -1.1875 8.039062 -0.992188 8.09375 -0.859375 C 8.15625 -0.722656 8.28125 -0.65625 8.46875 -0.65625 C 8.675781 -0.65625 8.890625 -0.785156 9.109375 -1.046875 C 9.335938 -1.316406 9.53125 -1.734375 9.6875 -2.296875 L 10.171875 -2.171875 C 10.109375 -1.859375 9.984375 -1.519531 9.796875 -1.15625 C 9.617188 -0.789062 9.375 -0.472656 9.0625 -0.203125 C 8.75 0.0546875 8.382812 0.1875 7.96875 0.1875 C 7.46875 0.1875 7.113281 0.0546875 6.90625 -0.203125 C 6.707031 -0.472656 6.609375 -0.882812 6.609375 -1.4375 C 6.609375 -1.851562 6.679688 -2.59375 6.828125 -3.65625 C 7.023438 -5.03125 7.125 -6.078125 7.125 -6.796875 C 7.125 -7.054688 7.066406 -7.289062 6.953125 -7.5 C 6.835938 -7.71875 6.632812 -7.828125 6.34375 -7.828125 C 5.84375 -7.828125 5.332031 -7.453125 4.8125 -6.703125 C 4.300781 -5.953125 3.875 -5.03125 3.53125 -3.9375 C 3.1875 -2.84375 3.015625 -1.828125 3.015625 -0.890625 C 3.015625 -0.679688 3.023438 -0.382812 3.046875 0 L 1.640625 0 C 1.628906 -0.101562 1.625 -0.25 1.625 -0.4375 C 1.625 -0.707031 1.644531 -1.082031 1.6875 -1.5625 C 1.738281 -2.050781 1.816406 -2.6875 1.921875 -3.46875 C 1.921875 -3.539062 1.929688 -3.65625 1.953125 -3.8125 C 1.960938 -3.957031 1.976562 -4.109375 2 -4.265625 C 2.03125 -4.421875 2.050781 -4.578125 2.0625 -4.734375 C 2.132812 -5.421875 2.1875 -5.921875 2.21875 -6.234375 C 2.257812 -6.546875 2.28125 -6.804688 2.28125 -7.015625 C 2.28125 -7.253906 2.25 -7.4375 2.1875 -7.5625 C 2.125 -7.695312 2.003906 -7.765625 1.828125 -7.765625 C 1.609375 -7.765625 1.382812 -7.628906 1.15625 -7.359375 C 0.9375 -7.097656 0.75 -6.691406 0.59375 -6.140625 L 0.125 -6.234375 C 0.175781 -6.546875 0.296875 -6.890625 0.484375 -7.265625 C 0.671875 -7.640625 0.914062 -7.957031 1.21875 -8.21875 C 1.53125 -8.476562 1.894531 -8.609375 2.3125 -8.609375 C 3.15625 -8.609375 3.578125 -8.03125 3.578125 -6.875 C 3.578125 -6.550781 3.546875 -6.191406 3.484375 -5.796875 C 3.421875 -5.410156 3.359375 -5.066406 3.296875 -4.765625 L 3.359375 -4.765625 C 3.898438 -6.203125 4.4375 -7.203125 4.96875 -7.765625 C 5.5 -8.328125 6.066406 -8.609375 6.671875 -8.609375 Z M 6.671875 -8.609375 "/></g></g></g><g fill="#000000" fill-opacity="1"><g transform="translate(219.041199, 18.010391)"><g><path d="M 6.5 -8.609375 C 6.976562 -8.609375 7.320312 -8.398438 7.53125 -7.984375 C 7.75 -7.578125 7.859375 -7.066406 7.859375 -6.453125 C 7.859375 -5.429688 7.65625 -4.359375 7.25 -3.234375 C 6.84375 -2.117188 6.296875 -0.945312 5.609375 0.28125 C 4.804688 1.769531 4.035156 2.851562 3.296875 3.53125 C 2.566406 4.21875 1.851562 4.5625 1.15625 4.5625 C 0.757812 4.5625 0.429688 4.460938 0.171875 4.265625 C -0.078125 4.066406 -0.203125 3.8125 -0.203125 3.5 C -0.203125 3.269531 -0.128906 3.082031 0.015625 2.9375 C 0.160156 2.800781 0.316406 2.734375 0.484375 2.734375 C 0.722656 2.734375 0.90625 2.804688 1.03125 2.953125 C 1.164062 3.109375 1.226562 3.328125 1.21875 3.609375 C 1.375 3.679688 1.492188 3.71875 1.578125 3.71875 C 2.003906 3.75 2.460938 3.484375 2.953125 2.921875 C 3.441406 2.359375 3.847656 1.804688 4.171875 1.265625 C 3.960938 -0.117188 3.675781 -1.515625 3.3125 -2.921875 C 2.957031 -4.328125 2.554688 -5.570312 2.109375 -6.65625 C 1.972656 -6.945312 1.851562 -7.160156 1.75 -7.296875 C 1.65625 -7.441406 1.515625 -7.515625 1.328125 -7.515625 C 1.140625 -7.515625 0.984375 -7.394531 0.859375 -7.15625 C 0.742188 -6.925781 0.6875 -6.609375 0.6875 -6.203125 C 0.6875 -6.015625 0.691406 -5.867188 0.703125 -5.765625 L 0.171875 -5.703125 C 0.160156 -5.804688 0.15625 -5.972656 0.15625 -6.203125 C 0.15625 -6.867188 0.273438 -7.4375 0.515625 -7.90625 C 0.753906 -8.375 1.148438 -8.609375 1.703125 -8.609375 C 2.210938 -8.609375 2.601562 -8.429688 2.875 -8.078125 C 3.15625 -7.722656 3.398438 -7.265625 3.609375 -6.703125 C 3.828125 -6.097656 4.023438 -5.441406 4.203125 -4.734375 C 4.390625 -4.035156 4.609375 -3.140625 4.859375 -2.046875 C 4.921875 -1.710938 5.003906 -1.140625 5.109375 -0.328125 L 5.140625 -0.328125 C 5.679688 -1.265625 6.132812 -2.253906 6.5 -3.296875 C 6.875 -4.335938 7.0625 -5.28125 7.0625 -6.125 C 7.0625 -6.394531 7.035156 -6.632812 6.984375 -6.84375 C 6.929688 -7.0625 6.875 -7.21875 6.8125 -7.3125 C 6.707031 -7.25 6.566406 -7.21875 6.390625 -7.21875 C 6.191406 -7.21875 6.03125 -7.28125 5.90625 -7.40625 C 5.78125 -7.539062 5.71875 -7.695312 5.71875 -7.875 C 5.71875 -8.113281 5.796875 -8.296875 5.953125 -8.421875 C 6.109375 -8.546875 6.289062 -8.609375 6.5 -8.609375 Z M 6.5 -8.609375 "/></g></g></g><g fill="#000000" fill-opacity="1"><g transform="translate(227.707985, 18.010391)"><g><path d="M 1.96875 -12.8125 C 2.289062 -12.8125 2.550781 -12.6875 2.75 -12.4375 C 2.945312 -12.1875 3.046875 -11.875 3.046875 -11.5 C 3.046875 -11.019531 2.921875 -10.457031 2.671875 -9.8125 C 2.429688 -9.175781 2.09375 -8.617188 1.65625 -8.140625 L 1.234375 -8.46875 C 1.460938 -8.738281 1.675781 -9.117188 1.875 -9.609375 C 2.082031 -10.097656 2.1875 -10.566406 2.1875 -11.015625 L 2.1875 -11.15625 L 2.15625 -11.15625 C 2.03125 -11.113281 1.898438 -11.09375 1.765625 -11.09375 C 1.554688 -11.09375 1.378906 -11.171875 1.234375 -11.328125 C 1.085938 -11.484375 1.015625 -11.660156 1.015625 -11.859375 C 1.015625 -12.148438 1.101562 -12.378906 1.28125 -12.546875 C 1.46875 -12.722656 1.695312 -12.8125 1.96875 -12.8125 Z M 1.96875 -12.8125 "/></g></g></g><g fill="#000000" fill-opacity="1"><g transform="translate(230.827324, 18.010391)"><g><path d="M 3.828125 -8.609375 C 4.492188 -8.609375 5.078125 -8.453125 5.578125 -8.140625 C 6.078125 -7.835938 6.328125 -7.445312 6.328125 -6.96875 C 6.328125 -6.726562 6.257812 -6.535156 6.125 -6.390625 C 5.988281 -6.253906 5.816406 -6.1875 5.609375 -6.1875 C 5.421875 -6.1875 5.257812 -6.253906 5.125 -6.390625 C 5 -6.523438 4.9375 -6.679688 4.9375 -6.859375 C 4.9375 -7.046875 4.988281 -7.222656 5.09375 -7.390625 C 5.019531 -7.585938 4.867188 -7.75 4.640625 -7.875 C 4.421875 -8 4.132812 -8.0625 3.78125 -8.0625 C 3.382812 -8.0625 3.023438 -7.929688 2.703125 -7.671875 C 2.378906 -7.421875 2.21875 -7.109375 2.21875 -6.734375 C 2.21875 -6.398438 2.363281 -6.101562 2.65625 -5.84375 C 2.957031 -5.59375 3.410156 -5.289062 4.015625 -4.9375 C 4.515625 -4.644531 4.921875 -4.382812 5.234375 -4.15625 C 5.554688 -3.925781 5.828125 -3.648438 6.046875 -3.328125 C 6.265625 -3.015625 6.375 -2.664062 6.375 -2.28125 C 6.375 -1.800781 6.238281 -1.375 5.96875 -1 C 5.707031 -0.632812 5.332031 -0.34375 4.84375 -0.125 C 4.363281 0.0820312 3.816406 0.1875 3.203125 0.1875 C 2.472656 0.1875 1.835938 0.0234375 1.296875 -0.296875 C 0.765625 -0.628906 0.5 -1.070312 0.5 -1.625 C 0.5 -1.851562 0.566406 -2.046875 0.703125 -2.203125 C 0.847656 -2.359375 1.023438 -2.4375 1.234375 -2.4375 C 1.441406 -2.4375 1.609375 -2.363281 1.734375 -2.21875 C 1.859375 -2.082031 1.921875 -1.921875 1.921875 -1.734375 C 1.921875 -1.546875 1.867188 -1.375 1.765625 -1.21875 C 1.847656 -0.976562 2.023438 -0.785156 2.296875 -0.640625 C 2.566406 -0.503906 2.859375 -0.4375 3.171875 -0.4375 C 3.765625 -0.4375 4.210938 -0.570312 4.515625 -0.84375 C 4.828125 -1.125 4.984375 -1.523438 4.984375 -2.046875 C 4.984375 -2.410156 4.828125 -2.734375 4.515625 -3.015625 C 4.203125 -3.296875 3.722656 -3.625 3.078125 -4 C 2.359375 -4.414062 1.816406 -4.789062 1.453125 -5.125 C 1.085938 -5.457031 0.90625 -5.863281 0.90625 -6.34375 C 0.90625 -6.75 1.03125 -7.125 1.28125 -7.46875 C 1.53125 -7.8125 1.875 -8.085938 2.3125 -8.296875 C 2.757812 -8.503906 3.265625 -8.609375 3.828125 -8.609375 Z M 3.828125 -8.609375 "/></g></g></g><g fill="#000000" fill-opacity="1"><g transform="translate(238.055332, 18.010391)"><g/></g></g><g fill="#000000" fill-opacity="1"><g transform="translate(238.055332, 18.010391)"><g/></g></g><g fill="#000000" fill-opacity="1"><g transform="translate(242.497459, 18.010391)"><g/></g></g></svg>